<?xml version="1.0" encoding="UTF-8" standalone="no"?>
<!-- Created with Inkscape (http://www.inkscape.org/) -->

<svg
   xmlns:dc="http://purl.org/dc/elements/1.1/"
   xmlns:cc="http://creativecommons.org/ns#"
   xmlns:rdf="http://www.w3.org/1999/02/22-rdf-syntax-ns#"
   xmlns:svg="http://www.w3.org/2000/svg"
   xmlns="http://www.w3.org/2000/svg"
   xmlns:sodipodi="http://sodipodi.sourceforge.net/DTD/sodipodi-0.dtd"
   xmlns:inkscape="http://www.inkscape.org/namespaces/inkscape"
   width="210mm"
   height="297mm"
   viewBox="0 0 744.09448819 1052.3622047"
   id="svg2"
   version="1.1"
   inkscape:version="0.91 r13725"
   sodipodi:docname="materials.svg"
   inkscape:export-filename="C:\Users\vynce\Desktop\icon_48.png"
   inkscape:export-xdpi="13.813467"
   inkscape:export-ydpi="13.813467">
  <defs
     id="defs4" />
  <sodipodi:namedview
     id="base"
     pagecolor="#ffff1f"
     bordercolor="#666666"
     borderopacity="1.0"
     inkscape:pageopacity="0"
     inkscape:pageshadow="2"
     inkscape:zoom="0.35"
     inkscape:cx="-168.77807"
     inkscape:cy="520"
     inkscape:document-units="px"
     inkscape:current-layer="layer1"
     showgrid="false"
     inkscape:window-width="1280"
     inkscape:window-height="657"
     inkscape:window-x="-8"
     inkscape:window-y="300"
     inkscape:window-maximized="1" />
  <metadata
     id="metadata7">
    <rdf:RDF>
      <cc:Work
         rdf:about="">
        <dc:format>image/svg+xml</dc:format>
        <dc:type
           rdf:resource="http://purl.org/dc/dcmitype/StillImage" />
        <dc:title></dc:title>
      </cc:Work>
    </rdf:RDF>
  </metadata>
  <g
     inkscape:label="Calque 1"
     inkscape:groupmode="layer"
     id="layer1">
    <path
       sodipodi:open="true"
       transform="matrix(-0.5,-0.8660254,0.8660254,-0.5,0,0)"
       d="m -448.39327,-26.892807 a 42.649639,42.649639 0 0 1 -31.6111,41.196388 42.649639,42.649639 0 0 1 -47.97421,-19.8715693"
       sodipodi:end="2.6179939"
       sodipodi:start="0"
       sodipodi:ry="42.649639"
       sodipodi:rx="42.649639"
       sodipodi:cy="-26.892807"
       sodipodi:cx="-491.04291"
       sodipodi:type="arc"
       id="path4177"
       style="fill:none;fill-opacity:1;fill-rule:nonzero;stroke:#ffffff;stroke-width:50.00000016;stroke-linecap:round;stroke-linejoin:miter;stroke-miterlimit:4;stroke-dasharray:none;stroke-opacity:1" />
    <path
       sodipodi:open="true"
       transform="matrix(-0.5,-0.8660254,0.8660254,-0.5,0,0)"
       d="m -395.3408,14.126909 a 81.364403,81.364403 0 0 1 -60.30574,78.591978 81.364403,81.364403 0 0 1 -91.5223,-37.909778"
       sodipodi:end="2.6179939"
       sodipodi:start="0"
       sodipodi:ry="81.364403"
       sodipodi:rx="81.364403"
       sodipodi:cy="14.126909"
       sodipodi:cx="-476.7052"
       sodipodi:type="arc"
       id="path4174"
       style="fill:none;fill-opacity:1;fill-rule:nonzero;stroke:#ffffff;stroke-width:50.00000016;stroke-linecap:round;stroke-linejoin:miter;stroke-miterlimit:4;stroke-dasharray:none;stroke-opacity:1" />
    <path
       inkscape:connector-curvature="0"
       id="path4172"
       d="m 230.39944,252.79533 a 122.85714,122.85714 0 0 1 148.30169,19.52428 122.85714,122.85714 0 0 1 19.52428,148.30169"
       style="fill:none;fill-opacity:1;fill-rule:nonzero;stroke:#ffffff;stroke-width:50;stroke-linecap:round;stroke-linejoin:round;stroke-miterlimit:4;stroke-dasharray:none;stroke-opacity:1" />
    <path
       style="fill:none;fill-opacity:1;fill-rule:nonzero;stroke:#000000;stroke-width:30;stroke-linecap:round;stroke-linejoin:round;stroke-miterlimit:4;stroke-dasharray:none;stroke-opacity:1"
       d="m 230.39944,252.79533 a 122.85714,122.85714 0 0 1 148.30169,19.52428 122.85714,122.85714 0 0 1 19.52428,148.30169"
       id="path4176"
       inkscape:connector-curvature="0" />
    <path
       style="fill:none;fill-opacity:1;fill-rule:nonzero;stroke:#000000;stroke-width:30.39839554;stroke-linecap:round;stroke-linejoin:miter;stroke-miterlimit:4;stroke-dasharray:none;stroke-opacity:1"
       id="path4176-1"
       sodipodi:type="arc"
       sodipodi:cx="-476.7052"
       sodipodi:cy="14.126909"
       sodipodi:rx="81.364403"
       sodipodi:ry="81.364403"
       sodipodi:start="0"
       sodipodi:end="2.6179939"
       d="m -395.3408,14.126909 a 81.364403,81.364403 0 0 1 -60.30574,78.591978 81.364403,81.364403 0 0 1 -91.5223,-37.909778"
       transform="matrix(-0.5,-0.8660254,0.8660254,-0.5,0,0)"
       sodipodi:open="true" />
    <path
       style="fill:none;fill-opacity:1;fill-rule:nonzero;stroke:#000000;stroke-width:30;stroke-linecap:round;stroke-linejoin:miter;stroke-miterlimit:4;stroke-dasharray:none;stroke-opacity:1"
       id="path4176-1-0"
       sodipodi:type="arc"
       sodipodi:cx="-491.04291"
       sodipodi:cy="-26.892807"
       sodipodi:rx="42.649639"
       sodipodi:ry="42.649639"
       sodipodi:start="0"
       sodipodi:end="2.6179939"
       d="m -448.39327,-26.892807 a 42.649639,42.649639 0 0 1 -31.6111,41.196388 42.649639,42.649639 0 0 1 -47.97421,-19.8715693"
       transform="matrix(-0.5,-0.8660254,0.8660254,-0.5,0,0)"
       sodipodi:open="true" />
    <g
       transform="matrix(0.78564751,0.78564751,-0.78564751,0.78564751,-29.24776,-41.676868)"
       style="font-style:normal;font-weight:normal;font-size:351.81954956px;line-height:125%;font-family:sans-serif;letter-spacing:0px;word-spacing:0px;fill:#000000;fill-opacity:1;stroke:#ffffff;stroke-width:9.00030613;stroke-linecap:butt;stroke-linejoin:miter;stroke-miterlimit:4;stroke-dasharray:none;stroke-opacity:1"
       id="text4172">
      <path
         d="m 441.35416,191.30647 34.87274,0 0,43.63387 -34.87274,0 0,-43.63387 z m 33.84202,-25.25267 -32.8113,0 0,-26.45519 q 0,-17.35047 4.81003,-28.51662 4.81004,-11.166147 20.27086,-25.939819 l 15.46082,-15.289034 q 9.79185,-9.104705 14.08652,-17.178689 4.46646,-8.073983 4.46646,-16.491541 0,-15.289033 -11.33793,-24.737312 -11.16615,-9.4482789 -29.71914,-9.4482789 -13.57116,0 -29.03198,6.0125411 -15.28903,6.0125408 -31.95236,17.5222628 l 0,-32.2959353 q 16.14797,-9.7918527 32.63951,-14.6018857 16.66333,-4.810033 34.35738,-4.810033 31.60878,0 50.67713,16.6633285 19.24013,16.6633282 19.24013,43.9774435 0,13.055804 -6.18433,24.909099 -6.18433,11.681509 -21.64515,26.455181 l -15.11724,14.773672 q -8.07399,8.07398 -11.50972,12.71223 -3.26396,4.46646 -4.63825,8.76113 -1.03072,3.60753 -1.54608,8.76113 -0.51536,5.15361 -0.51536,14.08653 l 0,21.12979 z"
         style="fill:#000000;fill-opacity:1;stroke:#ffffff;stroke-width:9.00030613;stroke-miterlimit:4;stroke-dasharray:none;stroke-opacity:1"
         id="path4225"
         inkscape:connector-curvature="0" />
    </g>
  </g>
</svg>
